<svg xmlns="http://www.w3.org/2000/svg" xmlns:xlink="http://www.w3.org/1999/xlink" viewBox="0 0 69.12 83.17"><defs><style>.cls-1{fill:url(#linear-gradient);}.cls-2{fill:#2a2b2b;}</style><linearGradient id="linear-gradient" x1="-3.54" y1="16.08" x2="55.12" y2="81.01" gradientUnits="userSpaceOnUse"><stop offset="0" stop-color="#006837"/><stop offset="1" stop-color="#c1272d"/></linearGradient></defs><g id="Layer_2" data-name="Layer 2"><g id="Layer_1-2" data-name="Layer 1"><path class="cls-1" d="M51.51,66.73A38.84,38.84,0,0,1,24.07,55.47l-.15-.15-.15.15A39.15,39.15,0,0,1,0,66.56a39.21,39.21,0,0,1,17.8-18.7l.2-.11-.12-.19A39.08,39.08,0,0,1,23.92,0,38.8,38.8,0,0,1,35.4,27.66a38.66,38.66,0,0,1-3.31,15.75l-.14.33.36,0c1.09-.09,2.2-.14,3.3-.14a39.25,39.25,0,0,1,33.51,19A38.58,38.58,0,0,1,51.51,66.73Z"/><path class="cls-2" d="M0,71.58H1.47V81.75H6.35V83H0Z"/><path class="cls-2" d="M13.89,77.64H9.46v4.11H14.4V83H8V71.58h6.16v1.24H9.46v3.6h4.43Z"/><path class="cls-2" d="M16.32,71.74A13.77,13.77,0,0,1,19,71.5a4.69,4.69,0,0,1,3.13.83,2.39,2.39,0,0,1,.94,2,2.7,2.7,0,0,1-1.93,2.51v0a2.94,2.94,0,0,1,2.36,2.86,3,3,0,0,1-1,2.28c-.79.73-2.08,1.07-3.94,1.07A16.51,16.51,0,0,1,16.32,83Zm1.47,4.67h1.33c1.56,0,2.47-.82,2.47-1.92,0-1.33-1-1.86-2.5-1.86a6.29,6.29,0,0,0-1.3.1Zm0,5.46a7.89,7.89,0,0,0,1.23.07c1.53,0,2.93-.56,2.93-2.22s-1.34-2.2-2.94-2.2H17.79Z"/><path class="cls-2" d="M28.87,81.2a5.29,5.29,0,0,0,2.64.74c1.51,0,2.39-.8,2.39-2s-.61-1.67-2.15-2.26c-1.86-.66-3-1.63-3-3.24,0-1.77,1.47-3.09,3.69-3.09A5.18,5.18,0,0,1,35,72l-.41,1.2a4.44,4.44,0,0,0-2.16-.54c-1.56,0-2.15.93-2.15,1.71,0,1.06.69,1.59,2.26,2.19,1.93.75,2.92,1.68,2.92,3.36s-1.31,3.28-4,3.28a5.85,5.85,0,0,1-2.91-.73Z"/><path class="cls-2" d="M38.89,71.58v4.78h5.52V71.58H45.9V83H44.41V77.64H38.89V83H37.42V71.58Z"/><path class="cls-2" d="M58.2,77.17c0,3.92-2.38,6-5.29,6s-5.13-2.33-5.13-5.78c0-3.62,2.25-6,5.3-6S58.2,73.78,58.2,77.17Zm-8.85.18C49.35,79.79,50.67,82,53,82s3.66-2.15,3.66-4.73c0-2.27-1.19-4.64-3.64-4.64S49.35,74.85,49.35,77.35Z"/><path class="cls-2" d="M60.12,71.72a16.85,16.85,0,0,1,2.82-.22,4.68,4.68,0,0,1,3.2,1,3,3,0,0,1,1,2.38,3.33,3.33,0,0,1-.88,2.44,4.73,4.73,0,0,1-3.49,1.25,5.3,5.3,0,0,1-1.18-.1V83H60.12Zm1.47,5.5a5.17,5.17,0,0,0,1.22.12c1.78,0,2.86-.87,2.86-2.44S64.6,72.67,63,72.67a6,6,0,0,0-1.39.12Z"/></g></g></svg>